<?xml version="1.0" standalone="no"?>
<!DOCTYPE svg PUBLIC "-//W3C//DTD SVG 20010904//EN"
 "http://www.w3.org/TR/2001/REC-SVG-20010904/DTD/svg10.dtd">
<svg version="1.0" xmlns="http://www.w3.org/2000/svg"
 width="200.000000pt" height="200.000000pt" viewBox="0 0 200.000000 200.000000"
 preserveAspectRatio="xMidYMid meet">
<metadata>
Created by potrace 1.10, written by Peter Selinger 2001-2011
</metadata>
<g transform="translate(0.000000,200.000000) scale(0.100000,-0.100000)"
fill="#000000" stroke="none">
<path d="M775 1918 c-3 -7 -4 -425 -3 -928 l3 -915 25 0 c23 0 25 4 28 47 l3
48 169 0 169 0 3 -47 c3 -44 5 -48 28 -48 l25 0 0 925 0 925 -25 0 c-23 0 -25
-4 -30 -55 l-5 -55 -165 0 -165 0 -5 55 c-4 48 -8 55 -28 58 -12 2 -24 -3 -27
-10z m395 -223 l0 -65 -170 0 -170 0 0 65 0 65 170 0 170 0 0 -65z m0 -195 l0
-70 -170 0 -170 0 0 70 0 70 170 0 170 0 0 -70z m0 -200 l0 -70 -170 0 -170 0
0 70 0 70 170 0 170 0 0 -70z m0 -200 l0 -70 -170 0 -170 0 0 70 0 70 170 0
170 0 0 -70z m0 -200 l0 -70 -170 0 -170 0 0 70 0 70 170 0 170 0 0 -70z m0
-200 l0 -70 -170 0 -170 0 0 70 0 70 170 0 170 0 0 -70z m0 -200 l0 -70 -170
0 -170 0 0 70 0 70 170 0 170 0 0 -70z m0 -200 l0 -70 -170 0 -170 0 0 70 0
70 170 0 170 0 0 -70z"/>
</g>
</svg>
